<?xml version="1.0" encoding="iso-8859-1"?>
<!-- Generator: Adobe Illustrator 27.0.0, SVG Export Plug-In . SVG Version: 6.00 Build 0)  -->
<svg version="1.1" baseProfile="basic" xmlns="http://www.w3.org/2000/svg" xmlns:xlink="http://www.w3.org/1999/xlink" x="0px"
	 y="0px" viewBox="0 0 48 48" xml:space="preserve">
<g id="Layer_1">
</g>
<g id="&#x421;&#x43B;&#x43E;&#x439;_1">
	<linearGradient id="SVGID_1_" gradientUnits="userSpaceOnUse" x1="12" y1="-5.4043" x2="12" y2="68.9094">
		<stop  offset="0" style="stop-color:#50D18D"/>
		<stop  offset="1" style="stop-color:#046A6D"/>
	</linearGradient>
	<path style="fill:url(#SVGID_1_);" d="M15,15H9c-1.105,0-2-0.895-2-2V7c0-1.105,0.895-2,2-2h6c1.105,0,2,0.895,2,2v6
		C17,14.105,16.105,15,15,15z"/>
	
		<linearGradient id="SVGID_00000072991976060828786100000001503121433862325415_" gradientUnits="userSpaceOnUse" x1="12" y1="-5.4043" x2="12" y2="68.9094">
		<stop  offset="0" style="stop-color:#50D18D"/>
		<stop  offset="1" style="stop-color:#046A6D"/>
	</linearGradient>
	<path style="fill:url(#SVGID_00000072991976060828786100000001503121433862325415_);" d="M15,28H9c-1.105,0-2-0.895-2-2v-6
		c0-1.105,0.895-2,2-2h6c1.105,0,2,0.895,2,2v6C17,27.105,16.105,28,15,28z"/>
	
		<linearGradient id="SVGID_00000021096353000199356880000011586636051524154782_" gradientUnits="userSpaceOnUse" x1="12" y1="-5.4043" x2="12" y2="68.9094">
		<stop  offset="0" style="stop-color:#50D18D"/>
		<stop  offset="1" style="stop-color:#046A6D"/>
	</linearGradient>
	<path style="fill:url(#SVGID_00000021096353000199356880000011586636051524154782_);" d="M15,41H9c-1.105,0-2-0.895-2-2v-6
		c0-1.105,0.895-2,2-2h6c1.105,0,2,0.895,2,2v6C17,40.105,16.105,41,15,41z"/>
	
		<linearGradient id="SVGID_00000172400511984871613680000010220672361005027509_" gradientUnits="userSpaceOnUse" x1="25" y1="16.2979" x2="25" y2="37.0235">
		<stop  offset="0" style="stop-color:#FED100"/>
		<stop  offset="0.033" style="stop-color:#FCCA00"/>
		<stop  offset="0.221" style="stop-color:#F3A400"/>
		<stop  offset="0.408" style="stop-color:#EC8601"/>
		<stop  offset="0.592" style="stop-color:#E77101"/>
		<stop  offset="0.771" style="stop-color:#E46401"/>
		<stop  offset="0.941" style="stop-color:#E36001"/>
	</linearGradient>
	<path style="fill:url(#SVGID_00000172400511984871613680000010220672361005027509_);" d="M28,28h-6c-1.105,0-2-0.895-2-2v-6
		c0-1.105,0.895-2,2-2h6c1.105,0,2,0.895,2,2v6C30,27.105,29.105,28,28,28z"/>
	
		<linearGradient id="SVGID_00000050623159652452643750000016332782450526046125_" gradientUnits="userSpaceOnUse" x1="25" y1="-5.4043" x2="25" y2="68.9094">
		<stop  offset="0" style="stop-color:#50D18D"/>
		<stop  offset="1" style="stop-color:#046A6D"/>
	</linearGradient>
	<path style="fill:url(#SVGID_00000050623159652452643750000016332782450526046125_);" d="M28,41h-6c-1.105,0-2-0.895-2-2v-6
		c0-1.105,0.895-2,2-2h6c1.105,0,2,0.895,2,2v6C30,40.105,29.105,41,28,41z"/>
	
		<linearGradient id="SVGID_00000148659032883892336540000013447593503850869381_" gradientUnits="userSpaceOnUse" x1="38" y1="26.2553" x2="38" y2="57.7488">
		<stop  offset="0" style="stop-color:#F44F5A"/>
		<stop  offset="0.443" style="stop-color:#EE3D4A"/>
		<stop  offset="1" style="stop-color:#E52030"/>
	</linearGradient>
	<path style="fill:url(#SVGID_00000148659032883892336540000013447593503850869381_);" d="M41,41h-6c-1.105,0-2-0.895-2-2v-6
		c0-1.105,0.895-2,2-2h6c1.105,0,2,0.895,2,2v6C43,40.105,42.105,41,41,41z"/>
</g>
</svg>